<svg width="12" height="10" viewBox="0 0 12 10" fill="none" xmlns="http://www.w3.org/2000/svg">
<rect width="12" height="10" fill="#E5E5E5"/>
<g id="medical-recover" clip-path="url(#clip0_0_3)">
<rect width="1440" height="5862" transform="translate(-1124 -40)" fill="white"/>
<g id="Header .1">
<rect width="1440" height="1037" transform="translate(-1124 -40)" fill="#FAFAFA"/>
<g id="background" clip-path="url(#clip1_0_3)">
<g id="hero-8-bg-shape-cover" clip-path="url(#clip2_0_3)">
<g id="none">
<rect id="Rectangle 10" x="-1044" y="-40" width="1440" height="611.682" fill="#FAFAFA"/>
</g>
</g>
</g>
<g id="container" clip-path="url(#clip3_0_3)">
<g id="navbar-style-2 navbar-light">
<g id="collapse navbar-collapse">
<g id="navbar-nav">
<g id="nav-item sec-">
<g id="button.btn.primary-color">
<path d="M-100 -16C-100 -18.7614 -97.7614 -21 -95 -21H32C34.7614 -21 37 -18.7614 37 -16V26C37 28.7614 34.7614 31 32 31H-95C-97.7614 31 -100 28.7614 -100 26V-16Z" fill="#FF685B"/>
<g id="icn arrow-right .icn-xs" clip-path="url(#clip4_0_3)">
<path id="Vector" fill-rule="evenodd" clip-rule="evenodd" d="M0 5C0 4.81059 0.079009 4.62895 0.219646 4.49502C0.360282 4.36109 0.551026 4.28584 0.749916 4.28584H9.43845L6.21831 1.22068C6.07749 1.08658 5.99838 0.904705 5.99838 0.715059C5.99838 0.525414 6.07749 0.343536 6.21831 0.209436C6.35912 0.0753365 6.5501 0 6.74925 0C6.94839 0 7.13937 0.0753365 7.28019 0.209436L11.7797 4.49438C11.8495 4.56072 11.9049 4.63952 11.9427 4.72629C11.9805 4.81305 12 4.90606 12 5C12 5.09394 11.9805 5.18695 11.9427 5.27371C11.9049 5.36048 11.8495 5.43928 11.7797 5.50562L7.28019 9.79056C7.13937 9.92466 6.94839 10 6.74925 10C6.5501 10 6.35912 9.92466 6.21831 9.79056C6.07749 9.65646 5.99838 9.47459 5.99838 9.28494C5.99838 9.0953 6.07749 8.91342 6.21831 8.77932L9.43845 5.71416H0.749916C0.551026 5.71416 0.360282 5.63892 0.219646 5.50499C0.079009 5.37106 0 5.18941 0 5Z" fill="white"/>
</g>
</g>
</g>
</g>
</g>
</g>
</g>
</g>
</g>
<defs>
<clipPath id="clip0_0_3">
<rect width="1440" height="5862" fill="white" transform="translate(-1124 -40)"/>
</clipPath>
<clipPath id="clip1_0_3">
<rect width="1440" height="843" fill="white" transform="translate(-1124 -40)"/>
</clipPath>
<clipPath id="clip2_0_3">
<rect width="1440" height="771" fill="white" transform="translate(-1044 -40)"/>
</clipPath>
<clipPath id="clip3_0_3">
<rect width="1322" height="91" fill="white" transform="translate(-1065 -40)"/>
</clipPath>
<clipPath id="clip4_0_3">
<rect width="12" height="10" fill="white"/>
</clipPath>
</defs>
</svg>
